<svg id="visual" viewBox="0 0 960 540" width="960" height="540" xmlns="http://www.w3.org/2000/svg" xmlns:xlink="http://www.w3.org/1999/xlink" version="1.1"><rect x="0" y="0" width="960" height="540" fill="#001220"></rect><path d="M0 318L12.3 326.3C24.7 334.7 49.3 351.3 74 358.3C98.7 365.3 123.3 362.7 148 364.7C172.7 366.7 197.3 373.3 221.8 372C246.3 370.7 270.7 361.3 295.2 357C319.7 352.7 344.3 353.3 369 350.5C393.7 347.7 418.3 341.3 443 348.7C467.7 356 492.3 377 517 389.7C541.7 402.3 566.3 406.7 591 400.3C615.7 394 640.3 377 664.8 367.3C689.3 357.7 713.7 355.3 738.2 363C762.7 370.7 787.3 388.3 812 396.2C836.7 404 861.3 402 886 389C910.7 376 935.3 352 947.7 340L960 328L960 541L947.7 541C935.3 541 910.7 541 886 541C861.3 541 836.7 541 812 541C787.3 541 762.7 541 738.2 541C713.7 541 689.3 541 664.8 541C640.3 541 615.7 541 591 541C566.3 541 541.7 541 517 541C492.3 541 467.7 541 443 541C418.3 541 393.7 541 369 541C344.3 541 319.7 541 295.2 541C270.7 541 246.3 541 221.8 541C197.3 541 172.7 541 148 541C123.3 541 98.7 541 74 541C49.3 541 24.7 541 12.3 541L0 541Z" fill="#fa7268"></path><path d="M0 429L12.3 420.5C24.7 412 49.3 395 74 395.7C98.7 396.3 123.3 414.7 148 415.8C172.7 417 197.3 401 221.8 391.8C246.3 382.7 270.7 380.3 295.2 379.7C319.7 379 344.3 380 369 378.5C393.7 377 418.3 373 443 368.7C467.7 364.3 492.3 359.7 517 361C541.7 362.3 566.3 369.7 591 379.7C615.7 389.7 640.3 402.3 664.8 407C689.3 411.7 713.7 408.3 738.2 411.3C762.7 414.3 787.3 423.7 812 428C836.7 432.3 861.3 431.7 886 419.3C910.7 407 935.3 383 947.7 371L960 359L960 541L947.7 541C935.3 541 910.7 541 886 541C861.3 541 836.7 541 812 541C787.3 541 762.7 541 738.2 541C713.7 541 689.3 541 664.8 541C640.3 541 615.7 541 591 541C566.3 541 541.7 541 517 541C492.3 541 467.7 541 443 541C418.3 541 393.7 541 369 541C344.3 541 319.7 541 295.2 541C270.7 541 246.3 541 221.8 541C197.3 541 172.7 541 148 541C123.3 541 98.7 541 74 541C49.3 541 24.7 541 12.3 541L0 541Z" fill="#ef5f67"></path><path d="M0 436L12.3 430C24.7 424 49.3 412 74 411.7C98.7 411.3 123.3 422.7 148 428.7C172.7 434.7 197.3 435.3 221.8 439.3C246.3 443.3 270.7 450.7 295.2 447.3C319.7 444 344.3 430 369 425.5C393.7 421 418.3 426 443 426.2C467.7 426.3 492.3 421.7 517 413.7C541.7 405.7 566.3 394.3 591 390.8C615.7 387.3 640.3 391.7 664.8 403.3C689.3 415 713.7 434 738.2 440C762.7 446 787.3 439 812 429.2C836.7 419.3 861.3 406.7 886 403.3C910.7 400 935.3 406 947.7 409L960 412L960 541L947.7 541C935.3 541 910.7 541 886 541C861.3 541 836.7 541 812 541C787.3 541 762.7 541 738.2 541C713.7 541 689.3 541 664.8 541C640.3 541 615.7 541 591 541C566.3 541 541.7 541 517 541C492.3 541 467.7 541 443 541C418.3 541 393.7 541 369 541C344.3 541 319.7 541 295.2 541C270.7 541 246.3 541 221.8 541C197.3 541 172.7 541 148 541C123.3 541 98.7 541 74 541C49.3 541 24.7 541 12.3 541L0 541Z" fill="#e34c67"></path><path d="M0 462L12.3 461C24.7 460 49.3 458 74 452.7C98.7 447.3 123.3 438.7 148 443C172.7 447.3 197.3 464.7 221.8 468.3C246.3 472 270.7 462 295.2 458.2C319.7 454.3 344.3 456.7 369 456.3C393.7 456 418.3 453 443 450.3C467.7 447.7 492.3 445.3 517 443.3C541.7 441.3 566.3 439.7 591 443.7C615.7 447.7 640.3 457.3 664.8 462.3C689.3 467.3 713.7 467.7 738.2 466.7C762.7 465.7 787.3 463.3 812 458.7C836.7 454 861.3 447 886 444C910.7 441 935.3 442 947.7 442.5L960 443L960 541L947.7 541C935.3 541 910.7 541 886 541C861.3 541 836.7 541 812 541C787.3 541 762.7 541 738.2 541C713.7 541 689.3 541 664.8 541C640.3 541 615.7 541 591 541C566.3 541 541.7 541 517 541C492.3 541 467.7 541 443 541C418.3 541 393.7 541 369 541C344.3 541 319.7 541 295.2 541C270.7 541 246.3 541 221.8 541C197.3 541 172.7 541 148 541C123.3 541 98.7 541 74 541C49.3 541 24.7 541 12.3 541L0 541Z" fill="#d53867"></path><path d="M0 469L12.3 468.5C24.7 468 49.3 467 74 466.5C98.7 466 123.3 466 148 466C172.7 466 197.3 466 221.8 467C246.3 468 270.7 470 295.2 471.7C319.7 473.3 344.3 474.7 369 479.7C393.7 484.7 418.3 493.3 443 497.5C467.7 501.7 492.3 501.3 517 497.3C541.7 493.3 566.3 485.7 591 483.8C615.7 482 640.3 486 664.8 484.2C689.3 482.3 713.7 474.7 738.2 472.5C762.7 470.3 787.3 473.7 812 477.3C836.7 481 861.3 485 886 483.3C910.7 481.7 935.3 474.3 947.7 470.7L960 467L960 541L947.7 541C935.3 541 910.7 541 886 541C861.3 541 836.7 541 812 541C787.3 541 762.7 541 738.2 541C713.7 541 689.3 541 664.8 541C640.3 541 615.7 541 591 541C566.3 541 541.7 541 517 541C492.3 541 467.7 541 443 541C418.3 541 393.7 541 369 541C344.3 541 319.7 541 295.2 541C270.7 541 246.3 541 221.8 541C197.3 541 172.7 541 148 541C123.3 541 98.7 541 74 541C49.3 541 24.7 541 12.3 541L0 541Z" fill="#c62368"></path></svg>