{"asset":{"generator":"glTF-Transform v3.4.0","version":"2.0","extras":{"author":"GSXNet (https://sketchfab.com/gsxn)","license":"CC-BY-NC-SA-4.0 (http://creativecommons.org/licenses/by-nc-sa/4.0/)","source":"https://sketchfab.com/3d-models/marcus-aurelius-6e21d2fe5435442aac2ba194f61b7c50","title":"Marcus Aurelius"}},"accessors":[{"type":"SCALAR","componentType":5125,"count":358950,"bufferView":0,"byteOffset":0},{"type":"SCALAR","componentType":5123,"count":152010,"bufferView":0,"byteOffset":1435800},{"type":"VEC3","componentType":5126,"count":65576,"bufferView":1,"byteOffset":0},{"type":"VEC3","componentType":5126,"count":65576,"max":[0.2584854066371918,0.14688752591609955,0.38210099935531616],"min":[-0.28379300236701965,-0.13656799495220184,-0.3543170094490051],"bufferView":1,"byteOffset":12},{"type":"VEC2","componentType":5126,"count":65576,"bufferView":1,"byteOffset":24},{"type":"VEC3","componentType":5126,"count":31166,"bufferView":2,"byteOffset":0},{"type":"VEC3","componentType":5126,"count":31166,"max":[0.25539079308509827,0.14669273793697357,0.3775460422039032],"min":[-0.28336700797080994,-0.13628800213336945,-0.3542729914188385],"bufferView":2,"byteOffset":12},{"type":"VEC2","componentType":5126,"count":31166,"bufferView":2,"byteOffset":24}],"bufferViews":[{"buffer":0,"byteOffset":0,"byteLength":1739820,"target":34963},{"buffer":0,"byteOffset":1739820,"byteLength":2098432,"byteStride":32,"target":34962},{"buffer":0,"byteOffset":3838252,"byteLength":997312,"byteStride":32,"target":34962}],"samplers":[{"magFilter":9729,"minFilter":9987,"wrapS":10497,"wrapT":10497}],"textures":[{"source":0,"sampler":0},{"source":1,"sampler":0}],"images":[{"mimeType":"image/jpeg","uri":"textures/Scene_-_Root_baseColor.jpeg"},{"mimeType":"image/png","uri":"textures/Scene_-_Root_metallicRoughness.png"}],"buffers":[{"uri":"scene.bin","byteLength":4835564}],"materials":[{"name":"Scene_-_Root","doubleSided":true,"pbrMetallicRoughness":{"roughnessFactor":0.7700076219512195,"metallicFactor":0,"baseColorTexture":{"index":0},"metallicRoughnessTexture":{"index":1}},"emissiveFactor":[0.4,0.4,0.4],"emissiveTexture":{"index":0}}],"meshes":[{"name":"Object_0","primitives":[{"attributes":{"NORMAL":2,"POSITION":3,"TEXCOORD_0":4},"mode":4,"material":0,"indices":0}]},{"name":"Object_1","primitives":[{"attributes":{"NORMAL":5,"POSITION":6,"TEXCOORD_0":7},"mode":4,"material":0,"indices":1}]}],"nodes":[{"name":"Sketchfab_model","rotation":[-0.7071067811865475,0,0,0.7071067811865476],"children":[1]},{"name":"MarcusAurelius.obj.cleaner.materialmerger.gles","children":[2,3]},{"name":"Object_2","mesh":0},{"name":"Object_3","mesh":1}],"scenes":[{"name":"Sketchfab_Scene","nodes":[0]}],"scene":0}